<svg xmlns="http://www.w3.org/2000/svg" height="24" width="24" xmlns:xlink="http://www.w3.org/1999/xlink">
<g opacity=".8" fill="var(--fill-color)" stroke="var(--stroke-color)" stroke-width=".2"><path d="M8.163 7.748H.836A.248.248 0 0 0 .593 8c0 .14.109.252.243.252h7.328A.248.248 0 0 0 8.407 8c0-.14-.11-.252-.244-.252ZM13.442 4c.073 0 .119.002.13.003 1.821 0 3.33.92 4.788 1.811 1.456.889 2.961 1.808 4.796 1.808a.252.252 0 0 1 0 .505h-6.29a.252.252 0 0 1 0-.505h3.803c-.91-.363-1.747-.874-2.57-1.376-1.464-.894-2.847-1.738-4.541-1.738-.03-.002-1.683-.074-2.742.937-.598.571-.902 1.389-.902 2.43-.001.033-.097 1.753.882 2.8.508.544 1.226.82 2.134.82.021 0 1.155.034 1.864-.655.388-.377.583-.912.58-1.59 0-.012 0-.753-.554-1.31-.432-.435-1.088-.655-1.95-.655h-.052a.252.252 0 0 1-.002-.505c1.03-.01 1.827.262 2.366.809.703.713.694 1.626.694 1.665.004.816-.243 1.475-.736 1.952-.865.839-2.167.795-2.22.793h-.002c-1.043 0-1.884-.33-2.49-.98-1.129-1.21-1.02-3.082-1.016-3.161 0-1.17.357-2.112 1.061-2.783C11.52 4.08 12.996 4 13.442 4Z"/></g>
</svg>